<svg id="Capa_1" xmlns="http://www.w3.org/2000/svg" viewBox="0 0 187.74 43.02">
	<path d="m21.64,43.02c11.95,0,21.64-9.63,21.64-21.51S33.59,0,21.64,0,0,9.63,0,21.51s9.69,21.51,21.64,21.51Z"
		style="fill:#b72e2e; fill-rule:evenodd;" />
	<path
		d="m25.22,32.69c-.17-.38-.32-.76-.44-1.16-.13-.41-.22-.81-.29-1.22-.73.84-1.62,1.52-2.67,2.04-1.04.52-2.23.78-3.57.78-2.23,0-4-.6-5.31-1.81-1.3-1.22-1.95-2.87-1.95-4.96s.85-3.77,2.56-4.94c1.71-1.16,4.21-1.74,7.52-1.74h3.13v-2.23c0-1.09-.31-1.94-.94-2.54-.63-.6-1.56-.9-2.79-.9-.7,0-1.32.08-1.87.25-.55.15-.99.34-1.32.57l-.4,2.44h-4.62l.02-5.04c1.12-.76,2.4-1.39,3.84-1.91,1.46-.52,3.04-.78,4.75-.78,2.81,0,5.1.69,6.85,2.08,1.76,1.37,2.65,3.33,2.65,5.88v10.38c.01.31.04.6.08.88l1.87.25v3.68h-7.08Zm-5.31-4.1c.92,0,1.76-.2,2.52-.59.76-.41,1.34-.91,1.76-1.51v-3.47h-3.13c-1.3,0-2.29.31-2.96.92-.67.6-1.01,1.33-1.01,2.18,0,.77.25,1.37.74,1.81.5.43,1.2.65,2.08.65Z"
		style="fill:#333;" />
	<path
		d="m59.23,30.59c-.13-.3-.25-.61-.35-.92-.1-.32-.18-.65-.24-.97-.58.67-1.29,1.22-2.13,1.63-.83.41-1.78.62-2.86.62-1.78,0-3.2-.48-4.25-1.45-1.04-.97-1.56-2.3-1.56-3.97s.68-3.02,2.05-3.95c1.37-.93,3.37-1.39,6.01-1.39h2.5v-1.78c0-.87-.25-1.55-.76-2.03-.5-.48-1.25-.72-2.23-.72-.56,0-1.06.07-1.5.2-.44.12-.79.27-1.06.45l-.32,1.95h-3.7l.02-4.03c.9-.6,1.92-1.11,3.07-1.53,1.16-.41,2.43-.62,3.8-.62,2.25,0,4.08.55,5.48,1.66,1.41,1.1,2.12,2.67,2.12,4.71v8.3c.01.25.03.48.07.71l1.5.2v2.94h-5.66Zm-4.25-3.28c.74,0,1.41-.16,2.02-.47.6-.32,1.08-.73,1.41-1.21v-2.77h-2.5c-1.04,0-1.83.25-2.37.74-.54.48-.81,1.06-.81,1.75,0,.62.2,1.1.59,1.45.4.35.96.52,1.66.52Zm11.22-11.95v-2.96h7.12l.24,2.12c.54-.78,1.18-1.39,1.93-1.81.75-.43,1.62-.64,2.62-.64,2.25,0,4,.88,5.24,2.64,1.24,1.76,1.86,4.07,1.86,6.94v.35c0,2.69-.62,4.85-1.86,6.49-1.24,1.64-2.98,2.45-5.21,2.45-.95,0-1.8-.17-2.54-.52-.74-.36-1.37-.88-1.9-1.56v5.26l2.37.5v2.96h-9.63v-2.96l2.37-.5V15.87l-2.62-.5Zm14.11,6.28c0-1.71-.29-3.1-.86-4.17-.57-1.06-1.44-1.6-2.62-1.6-.74,0-1.37.15-1.9.45-.52.3-.92.73-1.23,1.29v7.97c.3.52.71.91,1.23,1.18.53.27,1.17.4,1.93.4,1.19,0,2.06-.46,2.6-1.39.56-.93.84-2.19.84-3.78v-.35Zm15.79,9.29c-2.62,0-4.72-.84-6.28-2.52-1.57-1.68-2.35-3.81-2.35-6.4v-.67c0-2.7.74-4.92,2.22-6.67,1.49-1.75,3.48-2.62,5.98-2.6,2.45,0,4.36.74,5.71,2.22,1.36,1.48,2.03,3.48,2.03,6v2.67h-10.85l-.03.1c.09,1.2.49,2.18,1.19,2.96.72.77,1.69,1.16,2.91,1.16,1.09,0,1.99-.11,2.7-.32.72-.22,1.5-.57,2.35-1.04l1.33,3.02c-.75.59-1.72,1.09-2.92,1.5-1.19.4-2.51.6-3.98.6Zm-.44-15.09c-.91,0-1.62.35-2.15,1.04-.53.69-.85,1.61-.97,2.74l.05.08h6.01v-.44c0-1.04-.25-1.87-.74-2.49-.48-.63-1.22-.94-2.2-.94Zm9.71-.49v-2.96h7.12l.24,2.12c.54-.78,1.18-1.39,1.93-1.81.75-.43,1.62-.64,2.62-.64,2.25,0,4,.88,5.24,2.64,1.24,1.76,1.86,4.07,1.86,6.94v.35c0,2.69-.62,4.85-1.86,6.49-1.24,1.64-2.98,2.45-5.21,2.45-.95,0-1.8-.17-2.54-.52-.74-.36-1.37-.88-1.9-1.56v5.26l2.37.5v2.96h-9.63v-2.96l2.37-.5V15.87l-2.62-.5Zm14.11,6.28c0-1.71-.29-3.1-.86-4.17-.57-1.06-1.44-1.6-2.62-1.6-.74,0-1.37.15-1.9.45-.51.3-.92.73-1.23,1.29v7.97c.3.52.71.91,1.23,1.18.53.27,1.17.4,1.93.4,1.19,0,2.06-.46,2.6-1.39.56-.93.84-2.19.84-3.78v-.35Zm15.79,9.29c-2.62,0-4.71-.84-6.28-2.52-1.57-1.68-2.35-3.81-2.35-6.4v-.67c0-2.7.74-4.92,2.22-6.67,1.49-1.75,3.48-2.62,5.98-2.6,2.45,0,4.36.74,5.71,2.22,1.36,1.48,2.03,3.48,2.03,6v2.67h-10.85l-.03.1c.09,1.2.49,2.18,1.19,2.96.72.77,1.68,1.16,2.91,1.16,1.09,0,1.99-.11,2.71-.32.72-.22,1.5-.57,2.35-1.04l1.33,3.02c-.75.59-1.72,1.09-2.92,1.5-1.19.4-2.52.6-3.98.6Zm-.44-15.09c-.91,0-1.62.35-2.15,1.04-.53.69-.85,1.61-.97,2.74l.05.08h6.01v-.44c0-1.04-.25-1.87-.74-2.49-.48-.63-1.22-.94-2.2-.94Zm10.45,11.8l2.35-.5v-11.28l-2.6-.5v-2.96h7.17l.22,2.66c.43-.94.97-1.67,1.65-2.2.67-.53,1.45-.79,2.34-.79.26,0,.53.02.81.07.29.03.53.08.72.13l-.52,4.47-2.02-.05c-.72,0-1.31.14-1.78.42-.47.28-.83.68-1.07,1.19v8.84l2.35.5v2.94h-9.61v-2.94Zm13.96,0l2.37-.5v-11.28l-2.62-.5v-2.96h7.53v14.74l2.35.5v2.94h-9.63v-2.94Zm7.27-19.59h-4.9v-3.68h4.9v3.68Zm15.54,22.53c-.13-.3-.25-.61-.35-.92-.1-.32-.18-.65-.24-.97-.58.67-1.29,1.22-2.13,1.63-.83.41-1.78.62-2.86.62-1.78,0-3.2-.48-4.25-1.45-1.04-.97-1.56-2.3-1.56-3.97s.68-3.02,2.05-3.95c1.37-.93,3.37-1.39,6.01-1.39h2.5v-1.78c0-.87-.25-1.55-.76-2.03-.5-.48-1.25-.72-2.23-.72-.56,0-1.06.07-1.5.2-.44.12-.79.27-1.06.45l-.32,1.95h-3.69l.02-4.03c.9-.6,1.92-1.11,3.08-1.53,1.16-.41,2.43-.62,3.8-.62,2.25,0,4.08.55,5.48,1.66,1.41,1.1,2.12,2.67,2.12,4.71v8.3c.01.25.03.48.07.71l1.49.2v2.94h-5.66Zm-4.25-3.28c.74,0,1.41-.16,2.02-.47.6-.32,1.07-.73,1.41-1.21v-2.77h-2.5c-1.04,0-1.83.25-2.37.74-.54.48-.81,1.06-.81,1.75,0,.62.2,1.1.59,1.45.4.35.96.52,1.66.52Z"
		style="fill:#fff;" />
</svg>