<svg id="Capa_1" xmlns="http://www.w3.org/2000/svg" viewBox="0 0 16 15.9">
	<path d="m8,15.9c4.42,0,8-3.56,8-7.95S12.42,0,8,0,0,3.56,0,7.95s3.58,7.95,8,7.95Z"
		style="fill:#b72e2e; fill-rule:evenodd;" />
	<path
		d="m9.32,12.15c-.06-.14-.12-.28-.16-.43-.05-.15-.08-.3-.11-.45-.27.31-.6.56-.99.75-.38.19-.82.29-1.32.29-.82,0-1.48-.22-1.96-.67s-.72-1.06-.72-1.83.31-1.39.95-1.83c.63-.43,1.56-.64,2.78-.64h1.16v-.82c0-.4-.11-.72-.35-.94-.23-.22-.58-.33-1.03-.33-.26,0-.49.03-.69.09-.2.06-.37.13-.49.21l-.15.9h-1.71v-1.86c.42-.28.89-.51,1.43-.71.54-.19,1.12-.29,1.76-.29,1.04,0,1.89.26,2.53.77.65.51.98,1.23.98,2.17v3.84c0,.11.01.22.03.33l.69.09v1.36h-2.63Zm-1.96-1.52c.34,0,.65-.07.93-.22.28-.15.5-.34.65-.56v-1.28h-1.16c-.48,0-.85.11-1.09.34-.25.22-.37.49-.37.81,0,.28.09.51.27.67s.44.24.77.24h0Z"
		style="fill:#333;" />
</svg>